<?xml version="1.0" encoding="utf-8"?>
<!-- Generator: Adobe Illustrator 21.1.0, SVG Export Plug-In . SVG Version: 6.00 Build 0)  -->
<svg version="1.1" id="Layer_1" xmlns="http://www.w3.org/2000/svg" xmlns:xlink="http://www.w3.org/1999/xlink" x="0px" y="0px"
	 viewBox="0 0 254 49" style="enable-background:new 0 0 254 49;" xml:space="preserve">
<style type="text/css">
	.st0{fill:#E65647;}
	.st1{fill:#E55647;}
</style>
<path class="st0" d="M75.5,31.4H71c0,1-0.2,2.1-0.7,2.8c-0.4,0.6-1,1-2.1,1c-1.1,0-1.7-0.4-2.1-1.1c-0.9-1.4-1-4.2-1-9.4
	s0.1-8.1,1-9.4c0.4-0.6,1-1.1,2.1-1.1c1.1,0,1.7,0.4,2.1,1C70.8,16,71,17,71,18h4.5c-0.1-2.5-0.8-4.7-2.3-6c-1.3-1.2-2.8-1.8-5-1.8
	c-2.6,0-4.4,1-5.5,2.4c-1.9,2.2-2.1,5.4-2.1,12.1s0.2,9.9,2.1,12.1c1.2,1.4,2.9,2.4,5.5,2.4c2.2,0,3.6-0.6,4.9-1.8
	C74.6,36.2,75.4,34,75.5,31.4z M93.1,31.1c0-4.8-0.9-6.6-4.3-8l-3.4-1.4c-2-0.8-2.4-1.5-2.4-3.8c0-1.2,0.2-2.2,0.8-2.8
	c0.4-0.5,1-0.8,1.9-0.8c1,0,1.6,0.3,2,0.8c0.6,0.8,0.7,1.8,0.7,3h4.5c0-2.7-0.5-4.8-2-6.2c-1.2-1.1-2.8-1.7-5.1-1.7
	c-2,0-3.6,0.6-4.9,1.7c-1.6,1.4-2.3,3.5-2.3,6c0,4.4,1.1,6,4,7.2l3.4,1.4c2.2,0.9,2.7,1.6,2.7,4.7c0,1.5-0.2,2.5-0.8,3.2
	c-0.4,0.5-1.1,0.8-2.2,0.8c-1,0-1.7-0.3-2.1-0.8c-0.6-0.7-0.8-1.7-0.8-3.2h-4.5c0,3,0.5,4.8,1.8,6.1c1.2,1.2,3,1.9,5.5,1.9
	c2.5,0,4.4-0.8,5.6-1.9C92.7,36,93.1,34,93.1,31.1z M111.1,31.4v-7.9h-7.3v3.7h2.8v4.4c0,2-0.8,3.6-2.8,3.6c-1.1,0-1.7-0.4-2.1-1.1
	c-0.9-1.4-1-4.2-1-9.4s0.1-8.1,1-9.4c0.4-0.6,1-1.1,2.1-1.1c2.4,0,2.8,2.3,2.8,3.8h4.5c-0.1-2.4-0.8-4.5-2.2-6
	c-1.2-1.2-2.9-1.9-5.1-1.9c-2.6,0-4.4,1-5.5,2.4c-1.9,2.2-2.1,5.4-2.1,12.1s0.2,9.9,2.1,12.1c1.2,1.4,2.9,2.4,5.5,2.4
	C108.1,39.3,111.1,36.6,111.1,31.4z M129.8,24.8c0-6.8-0.2-9.9-2.1-12.1c-1.2-1.4-2.9-2.4-5.5-2.4s-4.4,1-5.5,2.4
	c-1.9,2.3-2.1,5.4-2.1,12.1s0.2,9.8,2.1,12.1c1.2,1.4,2.9,2.4,5.5,2.4s4.4-1,5.5-2.4C129.7,34.6,129.8,31.5,129.8,24.8z M125.3,24.8
	c0,5.2-0.1,8.1-1,9.4c-0.4,0.6-1.1,1.1-2.2,1.1s-1.7-0.4-2.1-1.1c-0.8-1.4-1-4.2-1-9.4s0.2-8.1,1-9.4c0.4-0.6,1-1.1,2.1-1.1
	s1.8,0.4,2.2,1.1C125.2,16.7,125.3,19.6,125.3,24.8z M148.3,19.2c0-6-2.2-8.7-7.3-8.7h-7.2V39h4.5V27.8h2.7
	C146.2,27.8,148.3,25.2,148.3,19.2z M143.9,19.2c0,2.9-0.6,4.6-3,4.6h-2.5v-9.2h2.5C143.3,14.6,143.9,16.3,143.9,19.2z M166.5,24.8
	c0-6.8-0.2-9.9-2.1-12.1c-1.2-1.4-2.9-2.4-5.5-2.4s-4.4,1-5.5,2.4c-1.9,2.3-2.1,5.4-2.1,12.1s0.2,9.8,2.1,12.1
	c1.2,1.4,2.9,2.4,5.5,2.4s4.4-1,5.5-2.4C166.3,34.6,166.5,31.5,166.5,24.8z M162,24.8c0,5.2-0.1,8.1-1,9.4c-0.4,0.6-1.1,1.1-2.2,1.1
	s-1.7-0.4-2.1-1.1c-0.8-1.4-1-4.2-1-9.4s0.2-8.1,1-9.4c0.4-0.6,1-1.1,2.1-1.1s1.8,0.4,2.2,1.1C161.9,16.7,162,19.6,162,24.8z
	 M182.5,39v-4H175V10.5h-4.5V39H182.5z M196.9,10.5H192l-2.8,11.3l-2.8-11.3h-5l5.5,17.3V39h4.5V27.8L196.9,10.5z M213.1,31.4v-7.9
	h-7.3v3.7h2.8v4.4c0,2-0.8,3.6-2.8,3.6c-1.1,0-1.7-0.4-2.1-1.1c-0.9-1.4-1-4.2-1-9.4s0.1-8.1,1-9.4c0.4-0.6,1-1.1,2.1-1.1
	c2.4,0,2.8,2.3,2.8,3.8h4.5c-0.1-2.4-0.8-4.5-2.2-6c-1.2-1.2-2.9-1.9-5.1-1.9c-2.6,0-4.4,1-5.5,2.4c-1.9,2.2-2.1,5.4-2.1,12.1
	s0.2,9.9,2.1,12.1c1.2,1.4,2.9,2.4,5.5,2.4C210.1,39.3,213.1,36.6,213.1,31.4z M231.8,24.8c0-6.8-0.2-9.9-2.1-12.1
	c-1.2-1.4-2.9-2.4-5.5-2.4s-4.4,1-5.5,2.4c-1.9,2.3-2.1,5.4-2.1,12.1s0.2,9.8,2.1,12.1c1.2,1.4,2.9,2.4,5.5,2.4s4.4-1,5.5-2.4
	C231.7,34.6,231.8,31.5,231.8,24.8z M227.3,24.8c0,5.2-0.1,8.1-1,9.4c-0.4,0.6-1.1,1.1-2.2,1.1s-1.7-0.4-2.1-1.1
	c-0.8-1.4-1-4.2-1-9.4s0.2-8.1,1-9.4c0.4-0.6,1-1.1,2.1-1.1s1.8,0.4,2.2,1.1C227.2,16.7,227.3,19.6,227.3,24.8z M251,39V10.5h-4.5
	v16.9l-6.7-16.9h-4V39h4.5V22.1l6.7,16.9H251z"/>
<path class="st1" d="M43.6,11.9L27.8,2.3c-2.8-1.7-6.8-1.7-9.4,0l-16,9.6C0.9,12.8,0,14.3,0,16.1v17.9c0,1.7,0.9,3.3,2.4,4.1
	l15.8,9.6c1.5,0.9,3.1,1.3,4.8,1.3s3.3-0.4,4.8-1.3l15.8-9.6c1.5-0.9,2.4-2.4,2.4-4.1V16.1C46,14.3,45.1,12.8,43.6,11.9z M29.6,11
	c1.1,0,2,0.9,2,2c0,1.1-0.9,2-2,2s-2-0.9-2-2C27.6,11.9,28.5,11,29.6,11z M16.4,11c1.1,0,2,0.9,2,2c0,1.1-0.9,2-2,2
	c-1.1,0-2-0.9-2-2C14.5,11.9,15.3,11,16.4,11z M9.9,32.4c-1.1,0-2-0.9-2-2c0-1.1,0.9-2,2-2s2,0.9,2,2C11.8,31.5,10.9,32.4,9.9,32.4z
	 M20.6,25.7c-0.2,0.4-0.7,0.4-0.9,0.4c-0.2,0-0.4,0-0.7-0.2L4.8,17.1c-0.4-0.2-0.7-0.9-0.2-1.5c0.2-0.4,1.1-0.7,1.5-0.4l14.2,8.7
	C20.8,24.3,21,25,20.6,25.7z M24.1,43.5c0,0.7-0.4,1.1-1.1,1.1c-0.7,0-1.1-0.4-1.1-1.1V29.4c0-0.7,0.4-1.1,1.1-1.1
	c0.7,0,1.1,0.4,1.1,1.1V43.5z M29.6,41.1c-1.1,0-2-0.9-2-2c0-1.1,0.9-2,2-2s2,0.9,2,2C31.5,40.3,30.7,41.1,29.6,41.1z M34,32.4
	c-1.1,0-2-0.9-2-2c0-1.1,0.9-2,2-2c1.1,0,2,0.9,2,2C35.9,31.5,35,32.4,34,32.4z M38.3,25.9c-1.1,0-2-0.9-2-2c0-1.1,0.9-2,2-2
	s2,0.9,2,2C40.3,25,39.4,25.9,38.3,25.9z M41.2,17.1l-14.2,8.7c-0.2,0.2-0.4,0.2-0.7,0.2c-0.4,0-0.7-0.2-0.9-0.4
	c-0.2-0.4-0.2-1.1,0.4-1.5l14.2-8.7c0.4-0.2,1.1-0.2,1.5,0.4C41.8,16.3,41.6,16.9,41.2,17.1z"/>
</svg>
